<svg xmlns="http://www.w3.org/2000/svg" width="640" height="420" viewBox="0 0 640 420">
  <style>
    text { font-family: monospace, 'Courier New', monospace; font-size: 12px; white-space: pre; }
  </style>
  <rect width="640" height="420" rx="8" fill="#0c0c0c"/>
  <rect width="640" height="32" rx="8" fill="#1a1a2e"/>
  <rect y="16" width="640" height="16" fill="#1a1a2e"/>
  <circle cx="20" cy="16" r="6" fill="#ff5f56"/>
  <circle cx="40" cy="16" r="6" fill="#ffbd2e"/>
  <circle cx="60" cy="16" r="6" fill="#27c93f"/>
  <text x="320" y="20" text-anchor="middle" fill="#888888" font-size="13">STAC6-Drive-01 -- Device Detail</text>

  <rect x="10" y="42" width="620" height="60" rx="2" fill="none" stroke="#ffff00" stroke-width="1"/>
  <rect x="11" y="41" width="260" height="14" fill="#0c0c0c"/>
  <text x="14" y="53" fill="#ffff00" font-weight="bold"> STAC6-Drive-01 (192.168.10.30) </text>
  <text x="14" y="70" fill="#ffff00">Status: ◐ High Latency (245ms)</text>
  <text x="14" y="86" fill="#888888">Protocol: Modbus TCP | Uptime: 14h 32m</text>

  <rect x="10" y="114" width="620" height="140" rx="2" fill="none" stroke="#00aaaa" stroke-width="1"/>
  <rect x="11" y="113" width="140" height="14" fill="#0c0c0c"/>
  <text x="14" y="125" fill="#00cccc" font-weight="bold"> Network I/O </text>

  <rect x="20" y="215" width="18" height="19" fill="#00ff00" opacity="0.7"/>
  <rect x="39" y="210" width="18" height="24" fill="#00ff00" opacity="0.7"/>
  <rect x="58" y="206" width="18" height="28" fill="#00ff00" opacity="0.7"/>
  <rect x="77" y="212" width="18" height="22" fill="#00ff00" opacity="0.7"/>
  <rect x="96" y="199" width="18" height="35" fill="#00ff00" opacity="0.7"/>
  <rect x="115" y="190" width="18" height="44" fill="#ffff00" opacity="0.7"/>
  <rect x="134" y="178" width="18" height="56" fill="#ffff00" opacity="0.7"/>
  <rect x="153" y="167" width="18" height="67" fill="#ff5555" opacity="0.7"/>
  <rect x="172" y="174" width="18" height="60" fill="#ffff00" opacity="0.7"/>
  <rect x="191" y="186" width="18" height="48" fill="#ffff00" opacity="0.7"/>
  <rect x="210" y="194" width="18" height="40" fill="#ffff00" opacity="0.7"/>
  <rect x="229" y="202" width="18" height="32" fill="#00ff00" opacity="0.7"/>
  <rect x="248" y="206" width="18" height="28" fill="#00ff00" opacity="0.7"/>
  <rect x="267" y="210" width="18" height="24" fill="#00ff00" opacity="0.7"/>
  <rect x="286" y="215" width="18" height="19" fill="#00ff00" opacity="0.7"/>
  <rect x="305" y="218" width="18" height="16" fill="#00ff00" opacity="0.7"/>
  <rect x="324" y="212" width="18" height="22" fill="#00ff00" opacity="0.7"/>
  <rect x="343" y="206" width="18" height="28" fill="#00ff00" opacity="0.7"/>
  <rect x="362" y="196" width="18" height="38" fill="#00ff00" opacity="0.7"/>
  <rect x="381" y="186" width="18" height="48" fill="#ffff00" opacity="0.7"/>
  <rect x="400" y="177" width="18" height="57" fill="#ffff00" opacity="0.7"/>
  <rect x="419" y="170" width="18" height="64" fill="#ff5555" opacity="0.7"/>
  <rect x="438" y="174" width="18" height="60" fill="#ffff00" opacity="0.7"/>
  <rect x="457" y="183" width="18" height="51" fill="#ffff00" opacity="0.7"/>
  <rect x="476" y="193" width="18" height="41" fill="#ffff00" opacity="0.7"/>
  <rect x="495" y="202" width="18" height="32" fill="#00ff00" opacity="0.7"/>
  <rect x="514" y="209" width="18" height="25" fill="#00ff00" opacity="0.7"/>
  <rect x="533" y="215" width="18" height="19" fill="#00ff00" opacity="0.7"/>
  <rect x="552" y="218" width="18" height="16" fill="#00ff00" opacity="0.7"/>
  <rect x="571" y="222" width="18" height="12" fill="#00ff00" opacity="0.7"/>
  <rect x="10" y="264" width="205" height="80" rx="2" fill="none" stroke="#00aaaa" stroke-width="1"/>
  <text x="16" y="280" fill="#888888">Avg Latency</text>
  <text x="16" y="302" fill="#ffff00" font-size="22" font-weight="bold">182ms</text>
  <text x="16" y="320" fill="#555555">p95: 312ms</text>
  <text x="16" y="334" fill="#555555">p99: 478ms</text>

  <rect x="219" y="264" width="205" height="80" rx="2" fill="none" stroke="#00aaaa" stroke-width="1"/>
  <text x="225" y="280" fill="#888888">Packet Loss</text>
  <text x="225" y="302" fill="#ff5555" font-size="22" font-weight="bold">2.4%</text>
  <text x="225" y="320" fill="#555555">RX: 14.2 MB/s</text>
  <text x="225" y="334" fill="#555555">TX: 8.7 MB/s</text>

  <rect x="428" y="264" width="203" height="80" rx="2" fill="none" stroke="#00aaaa" stroke-width="1"/>
  <text x="434" y="280" fill="#888888">Temperature</text>
  <text x="434" y="302" fill="#00ff00" font-size="22" font-weight="bold">42.1C</text>
  <text x="434" y="320" fill="#555555">Threshold: 60C</text>
  <text x="434" y="334" fill="#555555">Cycles: 1,247,832</text>

</svg>