<svg xmlns="http://www.w3.org/2000/svg" width="960" height="600" viewBox="0 0 960 600">
  <defs>
    <linearGradient id="titleGrad" x1="0%" y1="0%" x2="100%" y2="0%">
      <stop offset="0%" style="stop-color:#1a1a2e;stop-opacity:1"/>
      <stop offset="100%" style="stop-color:#0d0d1a;stop-opacity:1"/>
    </linearGradient>
    <filter id="glow">
      <feGaussianBlur stdDeviation="1" result="blur"/>
      <feMerge><feMergeNode in="blur"/><feMergeNode in="SourceGraphic"/></feMerge>
    </filter>
  </defs>
  <style>
    text { font-family: monospace, 'Courier New', 'Liberation Mono', monospace; font-size: 13px; white-space: pre; }
    .title-text { font-size: 13px; fill: #cccccc; }
    .dot-red { fill: #ff5f56; }
    .dot-yellow { fill: #ffbd2e; }
    .dot-green { fill: #27c93f; }
  </style>
  <!-- Terminal window background -->
  <rect width="960" height="600" rx="8" fill="#0c0c0c"/>
  <!-- Title bar -->
  <rect width="960" height="32" rx="8" fill="url(#titleGrad)"/>
  <rect y="16" width="960" height="16" fill="url(#titleGrad)"/>
  <!-- Traffic lights -->
  <circle cx="20" cy="16" r="6" class="dot-red"/>
  <circle cx="40" cy="16" r="6" class="dot-yellow"/>
  <circle cx="60" cy="16" r="6" class="dot-green"/>
  <text x="480" y="20" text-anchor="middle" class="title-text" fill="#888888">factoryops-console -- 5 devices monitored</text>

  <!-- Infrastructure Pulse Panel -->
  <rect x="12" y="44" width="542" height="206" rx="2" fill="none" stroke="#00aaaa" stroke-width="1"/>
  <rect x="13" y="43" width="196" height="16" fill="#0c0c0c"/>
  <text x="16" y="55" fill="#00cccc" font-weight="bold"> Infrastructure Pulse </text>

  <rect x="18" y="66" width="265" height="178" rx="1" fill="none" stroke="#555555" stroke-width="1"/>
  <rect x="19" y="65" width="92" height="14" fill="#0c0c0c"/>
  <text x="22" y="76" fill="#888888"> CPU 52% </text>

  <rect x="22" y="188" width="3" height="50" fill="#00ff00" opacity="0.8"/>
  <rect x="26" y="183" width="3" height="55" fill="#00ff00" opacity="0.8"/>
  <rect x="30" y="178" width="3" height="60" fill="#00ff00" opacity="0.8"/>
  <rect x="34" y="172" width="3" height="66" fill="#00ff00" opacity="0.8"/>
  <rect x="38" y="167" width="3" height="71" fill="#00ff00" opacity="0.8"/>
  <rect x="42" y="171" width="3" height="67" fill="#00ff00" opacity="0.8"/>
  <rect x="46" y="175" width="3" height="63" fill="#00ff00" opacity="0.8"/>
  <rect x="50" y="178" width="3" height="60" fill="#00ff00" opacity="0.8"/>
  <rect x="54" y="182" width="3" height="56" fill="#00ff00" opacity="0.8"/>
  <rect x="58" y="185" width="3" height="53" fill="#00ff00" opacity="0.8"/>
  <rect x="62" y="180" width="3" height="58" fill="#00ff00" opacity="0.8"/>
  <rect x="66" y="174" width="3" height="64" fill="#00ff00" opacity="0.8"/>
  <rect x="70" y="163" width="3" height="75" fill="#00ff00" opacity="0.8"/>
  <rect x="74" y="156" width="3" height="82" fill="#00ff00" opacity="0.8"/>
  <rect x="78" y="152" width="3" height="86" fill="#00ff00" opacity="0.8"/>
  <rect x="82" y="147" width="3" height="91" fill="#00ff00" opacity="0.8"/>
  <rect x="86" y="141" width="3" height="97" fill="#ffff00" opacity="0.8"/>
  <rect x="90" y="136" width="3" height="102" fill="#ffff00" opacity="0.8"/>
  <rect x="94" y="131" width="3" height="107" fill="#ffff00" opacity="0.8"/>
  <rect x="98" y="125" width="3" height="113" fill="#ffff00" opacity="0.8"/>
  <rect x="102" y="128" width="3" height="110" fill="#ffff00" opacity="0.8"/>
  <rect x="106" y="133" width="3" height="105" fill="#ffff00" opacity="0.8"/>
  <rect x="110" y="139" width="3" height="99" fill="#ffff00" opacity="0.8"/>
  <rect x="114" y="145" width="3" height="93" fill="#00ff00" opacity="0.8"/>
  <rect x="118" y="152" width="3" height="86" fill="#00ff00" opacity="0.8"/>
  <rect x="122" y="158" width="3" height="80" fill="#00ff00" opacity="0.8"/>
  <rect x="126" y="163" width="3" height="75" fill="#00ff00" opacity="0.8"/>
  <rect x="130" y="167" width="3" height="71" fill="#00ff00" opacity="0.8"/>
  <rect x="134" y="172" width="3" height="66" fill="#00ff00" opacity="0.8"/>
  <rect x="138" y="177" width="3" height="61" fill="#00ff00" opacity="0.8"/>
  <rect x="142" y="182" width="3" height="56" fill="#00ff00" opacity="0.8"/>
  <rect x="146" y="185" width="3" height="53" fill="#00ff00" opacity="0.8"/>
  <rect x="150" y="180" width="3" height="58" fill="#00ff00" opacity="0.8"/>
  <rect x="154" y="175" width="3" height="63" fill="#00ff00" opacity="0.8"/>
  <rect x="158" y="169" width="3" height="69" fill="#00ff00" opacity="0.8"/>
  <rect x="162" y="163" width="3" height="75" fill="#00ff00" opacity="0.8"/>
  <rect x="166" y="155" width="3" height="83" fill="#00ff00" opacity="0.8"/>
  <rect x="170" y="148" width="3" height="90" fill="#00ff00" opacity="0.8"/>
  <rect x="174" y="144" width="3" height="94" fill="#00ff00" opacity="0.8"/>
  <rect x="178" y="139" width="3" height="99" fill="#ffff00" opacity="0.8"/>
  <rect x="182" y="134" width="3" height="104" fill="#ffff00" opacity="0.8"/>
  <rect x="186" y="137" width="3" height="101" fill="#ffff00" opacity="0.8"/>
  <rect x="190" y="142" width="3" height="96" fill="#ffff00" opacity="0.8"/>
  <rect x="194" y="147" width="3" height="91" fill="#00ff00" opacity="0.8"/>
  <rect x="198" y="153" width="3" height="85" fill="#00ff00" opacity="0.8"/>
  <rect x="202" y="159" width="3" height="79" fill="#00ff00" opacity="0.8"/>
  <rect x="206" y="164" width="3" height="74" fill="#00ff00" opacity="0.8"/>
  <rect x="210" y="171" width="3" height="67" fill="#00ff00" opacity="0.8"/>
  <rect x="214" y="175" width="3" height="63" fill="#00ff00" opacity="0.8"/>
  <rect x="218" y="178" width="3" height="60" fill="#00ff00" opacity="0.8"/>
  <rect x="222" y="174" width="3" height="64" fill="#00ff00" opacity="0.8"/>
  <rect x="226" y="167" width="3" height="71" fill="#00ff00" opacity="0.8"/>
  <rect x="230" y="159" width="3" height="79" fill="#00ff00" opacity="0.8"/>
  <rect x="234" y="152" width="3" height="86" fill="#00ff00" opacity="0.8"/>
  <rect x="238" y="145" width="3" height="93" fill="#00ff00" opacity="0.8"/>
  <rect x="242" y="139" width="3" height="99" fill="#ffff00" opacity="0.8"/>
  <rect x="246" y="133" width="3" height="105" fill="#ffff00" opacity="0.8"/>
  <rect x="250" y="128" width="3" height="110" fill="#ffff00" opacity="0.8"/>
  <rect x="254" y="131" width="3" height="107" fill="#ffff00" opacity="0.8"/>
  <rect x="258" y="136" width="3" height="102" fill="#ffff00" opacity="0.8"/>
  <rect x="289" y="66" width="265" height="178" rx="1" fill="none" stroke="#555555" stroke-width="1"/>
  <rect x="290" y="65" width="120" height="14" fill="#0c0c0c"/>
  <text x="293" y="76" fill="#888888"> Memory 73% </text>

  <rect x="293" y="163" width="3" height="75" fill="#5555ff" opacity="0.8"/>
  <rect x="297" y="161" width="3" height="77" fill="#5555ff" opacity="0.8"/>
  <rect x="301" y="159" width="3" height="79" fill="#5555ff" opacity="0.8"/>
  <rect x="305" y="158" width="3" height="80" fill="#5555ff" opacity="0.8"/>
  <rect x="309" y="156" width="3" height="82" fill="#5555ff" opacity="0.8"/>
  <rect x="313" y="156" width="3" height="82" fill="#5555ff" opacity="0.8"/>
  <rect x="317" y="155" width="3" height="83" fill="#5555ff" opacity="0.8"/>
  <rect x="321" y="155" width="3" height="83" fill="#5555ff" opacity="0.8"/>
  <rect x="325" y="153" width="3" height="85" fill="#5555ff" opacity="0.8"/>
  <rect x="329" y="152" width="3" height="86" fill="#5555ff" opacity="0.8"/>
  <rect x="333" y="150" width="3" height="88" fill="#5555ff" opacity="0.8"/>
  <rect x="337" y="150" width="3" height="88" fill="#5555ff" opacity="0.8"/>
  <rect x="341" y="148" width="3" height="90" fill="#5555ff" opacity="0.8"/>
  <rect x="345" y="148" width="3" height="90" fill="#5555ff" opacity="0.8"/>
  <rect x="349" y="147" width="3" height="91" fill="#5555ff" opacity="0.8"/>
  <rect x="353" y="147" width="3" height="91" fill="#5555ff" opacity="0.8"/>
  <rect x="357" y="145" width="3" height="93" fill="#5555ff" opacity="0.8"/>
  <rect x="361" y="145" width="3" height="93" fill="#5555ff" opacity="0.8"/>
  <rect x="365" y="144" width="3" height="94" fill="#5555ff" opacity="0.8"/>
  <rect x="369" y="144" width="3" height="94" fill="#5555ff" opacity="0.8"/>
  <rect x="373" y="142" width="3" height="96" fill="#5555ff" opacity="0.8"/>
  <rect x="377" y="142" width="3" height="96" fill="#5555ff" opacity="0.8"/>
  <rect x="381" y="141" width="3" height="97" fill="#5555ff" opacity="0.8"/>
  <rect x="385" y="141" width="3" height="97" fill="#5555ff" opacity="0.8"/>
  <rect x="389" y="139" width="3" height="99" fill="#5555ff" opacity="0.8"/>
  <rect x="393" y="139" width="3" height="99" fill="#5555ff" opacity="0.8"/>
  <rect x="397" y="139" width="3" height="99" fill="#5555ff" opacity="0.8"/>
  <rect x="401" y="137" width="3" height="101" fill="#5555ff" opacity="0.8"/>
  <rect x="405" y="137" width="3" height="101" fill="#5555ff" opacity="0.8"/>
  <rect x="409" y="137" width="3" height="101" fill="#5555ff" opacity="0.8"/>
  <rect x="413" y="136" width="3" height="102" fill="#5555ff" opacity="0.8"/>
  <rect x="417" y="136" width="3" height="102" fill="#5555ff" opacity="0.8"/>
  <rect x="421" y="136" width="3" height="102" fill="#5555ff" opacity="0.8"/>
  <rect x="425" y="134" width="3" height="104" fill="#5555ff" opacity="0.8"/>
  <rect x="429" y="134" width="3" height="104" fill="#5555ff" opacity="0.8"/>
  <rect x="433" y="134" width="3" height="104" fill="#5555ff" opacity="0.8"/>
  <rect x="437" y="133" width="3" height="105" fill="#5555ff" opacity="0.8"/>
  <rect x="441" y="133" width="3" height="105" fill="#5555ff" opacity="0.8"/>
  <rect x="445" y="133" width="3" height="105" fill="#5555ff" opacity="0.8"/>
  <rect x="449" y="131" width="3" height="107" fill="#5555ff" opacity="0.8"/>
  <rect x="453" y="131" width="3" height="107" fill="#5555ff" opacity="0.8"/>
  <rect x="457" y="131" width="3" height="107" fill="#5555ff" opacity="0.8"/>
  <rect x="461" y="129" width="3" height="109" fill="#5555ff" opacity="0.8"/>
  <rect x="465" y="129" width="3" height="109" fill="#5555ff" opacity="0.8"/>
  <rect x="469" y="129" width="3" height="109" fill="#5555ff" opacity="0.8"/>
  <rect x="473" y="128" width="3" height="110" fill="#5555ff" opacity="0.8"/>
  <rect x="477" y="128" width="3" height="110" fill="#5555ff" opacity="0.8"/>
  <rect x="481" y="128" width="3" height="110" fill="#5555ff" opacity="0.8"/>
  <rect x="485" y="128" width="3" height="110" fill="#5555ff" opacity="0.8"/>
  <rect x="489" y="126" width="3" height="112" fill="#ffff00" opacity="0.8"/>
  <rect x="493" y="126" width="3" height="112" fill="#ffff00" opacity="0.8"/>
  <rect x="497" y="126" width="3" height="112" fill="#ffff00" opacity="0.8"/>
  <rect x="501" y="126" width="3" height="112" fill="#ffff00" opacity="0.8"/>
  <rect x="505" y="125" width="3" height="113" fill="#ffff00" opacity="0.8"/>
  <rect x="509" y="125" width="3" height="113" fill="#ffff00" opacity="0.8"/>
  <rect x="513" y="125" width="3" height="113" fill="#ffff00" opacity="0.8"/>
  <rect x="517" y="125" width="3" height="113" fill="#ffff00" opacity="0.8"/>
  <rect x="521" y="123" width="3" height="115" fill="#ffff00" opacity="0.8"/>
  <rect x="525" y="123" width="3" height="115" fill="#ffff00" opacity="0.8"/>
  <rect x="529" y="123" width="3" height="115" fill="#ffff00" opacity="0.8"/>
  <!-- Factory Floor - Device Grid -->
  <rect x="12" y="254" width="542" height="334" rx="2" fill="none" stroke="#00aaaa" stroke-width="1"/>
  <rect x="13" y="253" width="240" height="16" fill="#0c0c0c"/>
  <text x="16" y="265" fill="#00cccc" font-weight="bold" text-anchor="start"> Factory Floor - Device Grid </text>

  <text x="20" y="274" fill="#cccccc" font-weight="bold">Device</text>
  <text x="172" y="274" fill="#cccccc" font-weight="bold">IP Address</text>
  <text x="322" y="274" fill="#cccccc" font-weight="bold">Status</text>
  <text x="482" y="274" fill="#cccccc" font-weight="bold">Last Check</text>
  <line x1="16" y1="280" x2="550" y2="280" stroke="#444444"/>
  <text x="20" y="294" fill="#cccccc">Line-1-Printer</text>
  <text x="172" y="294" fill="#888888">192.168.10.15</text>
  <text x="322" y="294" fill="#00ff00">● Online</text>
  <text x="482" y="294" fill="#555555">1.2s</text>
  <text x="20" y="312" fill="#cccccc">Pack-Station-A</text>
  <text x="172" y="312" fill="#888888">192.168.10.22</text>
  <text x="322" y="312" fill="#00ff00">● Online</text>
  <text x="482" y="312" fill="#555555">0.8s</text>
  <text x="20" y="330" fill="#cccccc">STAC6-Drive-01</text>
  <text x="172" y="330" fill="#888888">192.168.10.30</text>
  <text x="322" y="330" fill="#ffff00">◐ Latency 245ms</text>
  <text x="482" y="330" fill="#555555">3.5s</text>
  <text x="20" y="348" fill="#cccccc">Line-2-Printer</text>
  <text x="172" y="348" fill="#888888">192.168.10.16</text>
  <text x="322" y="348" fill="#00ff00">● Online</text>
  <text x="482" y="348" fill="#555555">0.9s</text>
  <text x="20" y="366" fill="#cccccc">Quality-Scanner</text>
  <text x="172" y="366" fill="#888888">192.168.10.45</text>
  <text x="322" y="366" fill="#ff5555">○ OFFLINE</text>
  <text x="482" y="366" fill="#555555">12.4s</text>
  <!-- System Logs Panel -->
  <rect x="558" y="44" width="390" height="544" rx="2" fill="none" stroke="#00aaaa" stroke-width="1"/>
  <rect x="559" y="43" width="260" height="16" fill="#0c0c0c"/>
  <text x="753" y="55" fill="#00cccc" font-weight="bold" text-anchor="middle"> System Logs [21] [Auto] </text>

  <text x="564" y="66" fill="#555555">[11:30:14]</text>
  <text x="644" y="66" fill="#5555ff" font-weight="bold">[INFO]</text>
  <text x="704" y="66" fill="#cccccc"> FactoryOps Console initialized</text>
  <text x="564" y="84" fill="#555555">[11:30:14]</text>
  <text x="644" y="84" fill="#5555ff" font-weight="bold">[INFO]</text>
  <text x="704" y="84" fill="#cccccc"> Monitoring 5 manufacturing devices</text>
  <text x="564" y="102" fill="#555555">[11:30:14]</text>
  <text x="644" y="102" fill="#5555ff" font-weight="bold">[INFO]</text>
  <text x="704" y="102" fill="#cccccc"> System heartbeat OK</text>
  <text x="564" y="120" fill="#555555">[11:30:14]</text>
  <text x="644" y="120" fill="#5555ff" font-weight="bold">[INFO]</text>
  <text x="704" y="120" fill="#cccccc"> ERP connection stable</text>
  <text x="564" y="138" fill="#555555">[11:30:14]</text>
  <text x="644" y="138" fill="#ffff00" font-weight="bold">[WARN]</text>
  <text x="704" y="138" fill="#ffff00"> High memory usage detected on Line-1-Prin</text>
  <text x="564" y="156" fill="#555555">[11:30:14]</text>
  <text x="644" y="156" fill="#5555ff" font-weight="bold">[INFO]</text>
  <text x="704" y="156" fill="#cccccc"> System heartbeat OK</text>
  <text x="564" y="174" fill="#555555">[11:30:14]</text>
  <text x="644" y="174" fill="#ff5555" font-weight="bold">[ERROR]</text>
  <text x="704" y="174" fill="#ff5555"> Connection timeout to Quality-Scanner</text>
  <text x="564" y="192" fill="#555555">[11:30:14]</text>
  <text x="644" y="192" fill="#5555ff" font-weight="bold">[INFO]</text>
  <text x="704" y="192" fill="#cccccc"> Backup completed successfully</text>
  <text x="564" y="210" fill="#555555">[11:30:14]</text>
  <text x="644" y="210" fill="#ffff00" font-weight="bold">[WARN]</text>
  <text x="704" y="210" fill="#ffff00"> Packet loss detected on Line-2-Printer</text>
  <text x="564" y="228" fill="#555555">[11:30:14]</text>
  <text x="644" y="228" fill="#5555ff" font-weight="bold">[INFO]</text>
  <text x="704" y="228" fill="#cccccc"> Line-1-Printer (192.168.10.15) -> Online</text>
  <text x="564" y="246" fill="#555555">[11:30:14]</text>
  <text x="644" y="246" fill="#5555ff" font-weight="bold">[INFO]</text>
  <text x="704" y="246" fill="#cccccc"> Pack-Station-A (192.168.10.22) -> Online</text>
  <text x="564" y="264" fill="#555555">[11:30:14]</text>
  <text x="644" y="264" fill="#ffff00" font-weight="bold">[WARN]</text>
  <text x="704" y="264" fill="#ffff00"> STAC6-Drive-01 (192.168.10.30) -> High La</text>
  <text x="564" y="282" fill="#555555">[11:30:14]</text>
  <text x="644" y="282" fill="#ff5555" font-weight="bold">[ERROR]</text>
  <text x="704" y="282" fill="#ff5555"> Quality-Scanner (192.168.10.45) -> OFFLIN</text>
  <text x="564" y="300" fill="#555555">[11:30:14]</text>
  <text x="644" y="300" fill="#5555ff" font-weight="bold">[INFO]</text>
  <text x="704" y="300" fill="#cccccc"> System heartbeat OK</text>
  <text x="564" y="318" fill="#555555">[11:30:14]</text>
  <text x="644" y="318" fill="#ffff00" font-weight="bold">[WARN]</text>
  <text x="704" y="318" fill="#ffff00"> Disk usage 85% on production server</text>
  <text x="564" y="336" fill="#555555">[11:30:14]</text>
  <text x="644" y="336" fill="#5555ff" font-weight="bold">[INFO]</text>
  <text x="704" y="336" fill="#cccccc"> Backup completed successfully</text>
  <text x="564" y="354" fill="#555555">[11:30:14]</text>
  <text x="644" y="354" fill="#5555ff" font-weight="bold">[INFO]</text>
  <text x="704" y="354" fill="#cccccc"> System heartbeat OK</text>
  <text x="564" y="372" fill="#555555">[11:30:14]</text>
  <text x="644" y="372" fill="#5555ff" font-weight="bold">[INFO]</text>
  <text x="704" y="372" fill="#cccccc"> ERP connection stable</text>
  <text x="564" y="390" fill="#555555">[11:30:14]</text>
  <text x="644" y="390" fill="#ffff00" font-weight="bold">[WARN]</text>
  <text x="704" y="390" fill="#ffff00"> Packet loss detected on Line-2-Printer</text>
  <text x="564" y="408" fill="#555555">[11:30:14]</text>
  <text x="644" y="408" fill="#5555ff" font-weight="bold">[INFO]</text>
  <text x="704" y="408" fill="#cccccc"> System heartbeat OK</text>
  <text x="564" y="426" fill="#555555">[11:30:14]</text>
  <text x="644" y="426" fill="#5555ff" font-weight="bold">[INFO]</text>
  <text x="704" y="426" fill="#cccccc"> Manual device refresh triggered</text>
</svg>